<svg width="202" height="212" viewBox="0 0 202 212" fill="none" xmlns="http://www.w3.org/2000/svg">
<rect width="116.56" height="116.56" transform="matrix(0.86651 0.49916 -0.86651 0.49916 101 20)" fill="url(#paint0_linear_1934_9132)"/>
<rect width="116.56" height="75.6364" transform="matrix(0.86651 0.49916 0 1 0.000244141 78.1816)" fill="#FF7A9D"/>
<rect width="116.56" height="75.6364" transform="matrix(0.86651 -0.49916 0 1 101 136.364)" fill="#EC436F"/>
<circle cx="20.0337" cy="20.0337" r="20.0337" transform="matrix(0.86651 0.49916 -0.86651 0.49916 100.867 0)" fill="url(#paint1_linear_1934_9132)"/>
<path d="M76.3169 20C76.3169 23.9052 79.0647 27.4408 83.5074 30V56C79.0647 53.4408 76.3169 49.9052 76.3169 46V20Z" fill="#FF7A9D"/>
<path d="M83.5076 30C93.0949 35.5228 108.639 35.5228 118.226 30V56C108.639 61.5228 93.0949 61.5228 83.5076 56V30Z" fill="#EC436F"/>
<path d="M125.417 20C125.417 23.9052 122.669 27.4408 118.226 30V56C122.669 53.4408 125.417 49.9052 125.417 46V20Z" fill="#EC436F"/>
<circle cx="20.0337" cy="20.0337" r="20.0337" transform="matrix(0.86651 0.49916 -0.86651 0.49916 152.984 30)" fill="url(#paint2_linear_1934_9132)"/>
<path d="M128.434 50C128.434 53.9052 131.181 57.4408 135.624 60V86C131.181 83.4408 128.434 79.9052 128.434 76V50Z" fill="#FF7A9D"/>
<path d="M135.624 60C145.212 65.5228 160.756 65.5228 170.343 60V86C160.756 91.5228 145.212 91.5228 135.624 86V60Z" fill="#EC436F"/>
<path d="M177.533 50C177.533 53.9052 174.785 57.4408 170.343 60V86C174.785 83.4408 177.533 79.9052 177.533 76V50Z" fill="#EC436F"/>
<circle cx="20.0337" cy="20.0337" r="20.0337" transform="matrix(0.86651 0.49916 -0.86651 0.49916 52.7598 30)" fill="url(#paint3_linear_1934_9132)"/>
<path d="M28.2097 50C28.2097 53.9052 30.9576 57.4408 35.4002 60V86C30.9576 83.4408 28.2097 79.9052 28.2097 76V50Z" fill="#FF7A9D"/>
<path d="M35.4004 60C44.9877 65.5228 60.5318 65.5228 70.1191 60V86C60.5318 91.5228 44.9877 91.5228 35.4004 86V60Z" fill="#EC436F"/>
<path d="M77.3094 50C77.3094 53.9052 74.5615 57.4408 70.1189 60V86C74.5615 83.4408 77.3094 79.9052 77.3094 76V50Z" fill="#EC436F"/>
<circle cx="20.0337" cy="20.0337" r="20.0337" transform="matrix(0.86651 0.49916 -0.86651 0.49916 100.867 60)" fill="url(#paint4_linear_1934_9132)"/>
<path d="M76.3169 80C76.3169 83.9052 79.0647 87.4408 83.5074 90V116C79.0647 113.441 76.3169 109.905 76.3169 106V80Z" fill="#FF7A9D"/>
<path d="M83.5076 90C93.0949 95.5228 108.639 95.5228 118.226 90V116C108.639 121.523 93.0949 121.523 83.5076 116V90Z" fill="#EC436F"/>
<path d="M125.417 80C125.417 83.9052 122.669 87.4408 118.226 90V116C122.669 113.441 125.417 109.905 125.417 106V80Z" fill="#EC436F"/>
<defs>
<linearGradient id="paint0_linear_1934_9132" x1="58.2798" y1="0" x2="58.2798" y2="116.56" gradientUnits="userSpaceOnUse">
<stop stop-color="#FF9BBB"/>
<stop offset="1" stop-color="#FF507F"/>
</linearGradient>
<linearGradient id="paint1_linear_1934_9132" x1="20.0337" y1="0" x2="20.0337" y2="40.0673" gradientUnits="userSpaceOnUse">
<stop stop-color="#FF9BBB"/>
<stop offset="1" stop-color="#FF507F"/>
</linearGradient>
<linearGradient id="paint2_linear_1934_9132" x1="20.0337" y1="0" x2="20.0337" y2="40.0673" gradientUnits="userSpaceOnUse">
<stop stop-color="#FF9BBB"/>
<stop offset="1" stop-color="#FF507F"/>
</linearGradient>
<linearGradient id="paint3_linear_1934_9132" x1="20.0337" y1="0" x2="20.0337" y2="40.0673" gradientUnits="userSpaceOnUse">
<stop stop-color="#FF9BBB"/>
<stop offset="1" stop-color="#FF507F"/>
</linearGradient>
<linearGradient id="paint4_linear_1934_9132" x1="20.0337" y1="0" x2="20.0337" y2="40.0673" gradientUnits="userSpaceOnUse">
<stop stop-color="#FF9BBB"/>
<stop offset="1" stop-color="#FF507F"/>
</linearGradient>
</defs>
</svg>
