<svg width="200" height="232" viewBox="0 0 200 232" fill="none" xmlns="http://www.w3.org/2000/svg">
<path d="M26.0223 87.2072L0 107.027L34.4486 91.1711L32.4659 96.6216L36.1834 94.6396L58.4882 164.009L76.5799 151.869L70.632 151.126L59.9752 141.959L69.8885 128.086L40.1487 90.1801L33.4572 88.4459L26.0223 87.2072Z" fill="#7A97FF"/>
<path d="M59.7274 141.959L94.9195 93.6487L88.228 132.545L185.13 164.752L70.632 151.126L59.7274 141.959Z" fill="#8BD9FF"/>
<path d="M28.7485 0L33.2094 88.446L40.1487 90.1802L61.9579 117.928L75.0929 108.761L28.7485 0Z" fill="#8BD9FF"/>
<path d="M3.22181 108.761L0 107.027L34.6964 90.9234L32.4659 96.6216L3.22181 108.761Z" fill="#8BD9FF"/>
<path d="M68.8971 129.324L61.9578 117.928L94.6716 95.3829L68.8971 129.324Z" fill="#6580E1"/>
<path d="M52.2924 156.824L30.7311 97.3649L36.1834 94.6396L56.2577 156.824H52.2924Z" fill="#6580E1"/>
<path d="M121.685 117.928L118.711 115.946L200 52.5225L137.546 118.919L121.685 117.928Z" fill="#6580E1"/>
<path d="M74.3495 109.505L28.7485 0L106.815 76.3063L107.559 106.779L94.4238 95.6306L74.3495 109.505Z" fill="url(#paint0_linear_1_2844)"/>
<path d="M87.7324 133.041L94.4238 95.6306L121.685 117.928L87.7324 133.041Z" fill="url(#paint1_linear_1_2844)"/>
<path d="M121.685 117.928L87.7324 133.04L185.13 165L143.494 119.167L121.685 117.928Z" fill="url(#paint2_linear_1_2844)"/>
<path d="M59.4796 142.207L94.4238 95.6306L87.9802 132.793L185.13 165L70.3841 151.126L59.4796 142.207Z" fill="url(#paint3_linear_1_2844)"/>
<path d="M74.5973 109.257L28.7485 0L33.2094 88.446L40.1487 90.1802L61.9579 117.928L74.5973 109.257Z" fill="url(#paint4_linear_1_2844)"/>
<path d="M24.1259 222.68C25.6859 222.6 26.7659 222.44 26.7659 220.32V205.4H23.9259V205.2C24.8859 205.2 25.8059 205.16 26.7659 205.08V201.92C26.7659 194.12 33.6459 193.36 35.8859 193.36C39.4859 193.36 41.9259 195.4 41.9259 197.64C41.9259 199 41.0059 200.84 38.6859 200.84C36.6859 200.84 35.4859 199.44 35.4859 197.68C35.4859 195.88 36.7659 194.84 37.8859 194.28C37.4459 193.96 36.8859 193.76 36.2459 193.76C33.2459 193.76 33.2459 197.2 33.2459 200.48V205H39.7259V205.4H33.2459V220.32C33.2459 222.44 35.1659 222.6 37.2059 222.68V223C35.8059 222.96 25.2059 222.96 24.1259 223V222.68ZM52.1284 210.92C52.1284 208.32 51.8484 204.84 49.0084 204.84C47.7284 204.84 46.5284 205.48 45.4884 206.36C46.6084 206.64 47.7684 207.68 47.7684 209.36C47.7684 211.12 46.4484 212.56 44.5684 212.56C42.6884 212.56 41.4484 211.12 41.4484 209.36C41.4484 206.88 43.9684 204.4 50.5284 204.4C58.6084 204.4 58.6084 208.16 58.6084 211.8V219.8C58.6084 221.76 59.8484 222.32 61.6484 222.36V222.68C60.0084 222.6 53.5284 223.12 52.4084 223.32H52.1284V219.88C51.1284 221.08 48.9684 223.32 46.2484 223.32C44.8484 223.32 41.3684 222.84 41.3684 219.04C41.3684 214.52 46.2484 213.72 52.1284 212.76V210.92ZM48.0084 217.6C48.0084 219.84 48.5684 220.56 49.8884 220.56C50.4884 220.56 51.0084 220.44 52.1284 219.36V213.16C48.3684 213.84 48.0084 215.76 48.0084 217.6ZM62.8341 222.68C64.3941 222.6 65.4741 222.44 65.4741 220.32V196.52C65.4741 194.56 64.2341 194 62.4341 193.96V193.64C64.0741 193.72 70.5541 193.2 71.6741 193H71.9541V220.32C71.9541 222.44 73.0341 222.6 74.5941 222.68V223C73.5141 222.96 63.9141 222.96 62.8341 223V222.68ZM76.0372 222.68C77.5972 222.6 78.6772 222.44 78.6772 220.32V196.52C78.6772 194.56 77.4372 194 75.6372 193.96V193.64C77.2772 193.72 83.7572 193.2 84.8772 193H85.1572V220.32C85.1572 222.44 86.2372 222.6 87.7972 222.68V223C86.7172 222.96 77.1172 222.96 76.0372 223V222.68ZM98.9203 223.32C94.0003 223.32 89.7203 220 89.7203 213.88C89.7203 207.88 93.8803 204.36 99.2403 204.36C104.04 204.36 106.4 207.4 106.4 210.88V211.28H96.3203C96.2803 211.68 96.2803 212.08 96.2803 212.48C96.2803 219.76 98.9203 221.08 101.44 221.08C103.88 221.08 105.72 220.12 106.92 217.92L107.16 218.08C105.52 221.08 103.2 223.32 98.9203 223.32ZM96.3203 210.88L99.7203 210.72C100.16 210.68 100.4 210.64 100.4 209.44C100.4 207.4 99.7603 204.76 98.6403 204.76C97.5203 204.76 96.5203 207.12 96.3203 210.88ZM115.373 223.32C111.013 223.32 111.013 219.72 111.013 217.48V205.4H108.453V205H111.013V203.36C113.053 202.68 115.693 201.44 117.173 199.92H117.493V205H122.853L122.813 205.4H117.493V216.52C117.493 219.92 117.613 220.96 118.533 220.96C119.493 220.96 120.533 219.32 121.133 217.4L121.413 217.52C120.893 219.32 120.013 223.32 115.373 223.32ZM130.646 223.32C126.286 223.32 126.286 219.72 126.286 217.48V205.4H123.726V205H126.286V203.36C128.326 202.68 130.966 201.44 132.446 199.92H132.766V205H138.126L138.086 205.4H132.766V216.52C132.766 219.92 132.886 220.96 133.806 220.96C134.766 220.96 135.806 219.32 136.406 217.4L136.686 217.52C136.166 219.32 135.286 223.32 130.646 223.32ZM148.608 223.32C143.688 223.32 139.408 220 139.408 213.88C139.408 207.88 143.568 204.36 148.928 204.36C153.728 204.36 156.088 207.4 156.088 210.88V211.28H146.008C145.968 211.68 145.968 212.08 145.968 212.48C145.968 219.76 148.608 221.08 151.128 221.08C153.568 221.08 155.408 220.12 156.608 217.92L156.848 218.08C155.208 221.08 152.888 223.32 148.608 223.32ZM146.008 210.88L149.408 210.72C149.848 210.68 150.088 210.64 150.088 209.44C150.088 207.4 149.448 204.76 148.328 204.76C147.208 204.76 146.208 207.12 146.008 210.88ZM158.22 222.68C159.78 222.6 161.26 222.44 161.26 220.32V207.88C161.26 205.92 160.02 205.36 158.22 205.32V205C159.86 205.08 166.34 204.56 167.46 204.36H167.74V207.56H167.82C169.3 206.24 171.3 204.32 173.46 204.32C175.3 204.32 176.54 205.64 176.54 207.32C176.54 209 175.26 210.72 173.34 210.72C172.06 210.72 170.3 210 169.74 206.92C169.14 207.16 168.5 207.56 167.74 208.12V220.32C167.74 222.44 169.22 222.6 171.58 222.68V223C169.7 222.96 159.3 222.96 158.22 223V222.68Z" fill="url(#paint5_linear_1_2844)"/>
<defs>
<linearGradient id="paint0_linear_1_2844" x1="117.224" y1="35.9234" x2="48.3345" y2="65.6701" gradientUnits="userSpaceOnUse">
<stop stop-color="#86FBFF"/>
<stop offset="1" stop-color="#93AAFF"/>
</linearGradient>
<linearGradient id="paint1_linear_1_2844" x1="147.212" y1="111.239" x2="82.5289" y2="101.322" gradientUnits="userSpaceOnUse">
<stop stop-color="#86FBFF"/>
<stop offset="1" stop-color="#93AAFF"/>
</linearGradient>
<linearGradient id="paint2_linear_1_2844" x1="171.747" y1="108.761" x2="87.5498" y2="132.577" gradientUnits="userSpaceOnUse">
<stop stop-color="#86FBFF"/>
<stop offset="1" stop-color="#93AAFF"/>
</linearGradient>
<linearGradient id="paint3_linear_1_2844" x1="116.481" y1="108.266" x2="51.0646" y2="146.686" gradientUnits="userSpaceOnUse">
<stop stop-color="#86FBFF"/>
<stop offset="1" stop-color="#93AAFF"/>
</linearGradient>
<linearGradient id="paint4_linear_1_2844" x1="51.6729" y1="0.247748" x2="61.208" y2="147.163" gradientUnits="userSpaceOnUse">
<stop stop-color="#86FBFF"/>
<stop offset="1" stop-color="#93AAFF"/>
</linearGradient>
<linearGradient id="paint5_linear_1_2844" x1="23" y1="203.8" x2="167.531" y2="230.604" gradientUnits="userSpaceOnUse">
<stop stop-color="#86FBFF"/>
<stop offset="1" stop-color="#93AAFF"/>
</linearGradient>
</defs>
</svg>
