<svg width="20" height="20" viewBox="0 0 20 20" fill="none" xmlns="http://www.w3.org/2000/svg">
<path d="M9.23297 3.52559L1.35744 17.1678C1.04018 17.7215 1.43831 18.4182 2.07905 18.4182H17.8301C18.4709 18.4182 18.869 17.7277 18.5517 17.1678L10.6762 3.52559C10.3527 2.97194 9.55645 2.97194 9.23297 3.52559Z" fill="#FFB02E"/>
<path d="M9.08203 13.3732C9.08203 13.8522 9.46772 14.2441 9.95294 14.2441C10.4382 14.2441 10.8239 13.8522 10.8239 13.367V7.66876C10.8239 7.18976 10.4382 6.79785 9.95294 6.79785C9.47394 6.79785 9.08203 7.18354 9.08203 7.66876V13.3732Z" fill="black"/>
<path d="M10.8239 15.8491C10.8239 16.3301 10.4339 16.72 9.95294 16.72C9.47195 16.72 9.08203 16.3301 9.08203 15.8491C9.08203 15.3681 9.47195 14.9782 9.95294 14.9782C10.4339 14.9782 10.8239 15.3681 10.8239 15.8491Z" fill="black"/>
</svg>
