<svg width="100" height="100" viewBox="0 0 100 100" fill="none" xmlns="http://www.w3.org/2000/svg">
<path d="M49.9917 31.25C48.1972 31.25 46.6684 30.6156 45.4052 29.3469C44.1413 28.0781 43.5094 26.5465 43.5094 24.7521C43.5094 22.9569 44.1437 21.4278 45.4125 20.1646C46.6812 18.9014 48.2132 18.2698 50.0083 18.2698C51.8028 18.2698 53.3316 18.9041 54.5948 20.1729C55.8587 21.4416 56.4906 22.9732 56.4906 24.7677C56.4906 26.5628 55.8562 28.092 54.5875 29.3552C53.3187 30.6184 51.7868 31.25 49.9917 31.25ZM43.0292 81.1698V64.9041H35.2969L44.5115 39.3833C44.9601 38.2347 45.6767 37.3132 46.6615 36.6187C47.6455 35.9243 48.7566 35.5771 49.9948 35.5771C51.2323 35.5771 52.3451 35.9243 53.3333 36.6187C54.3215 37.3132 55.0399 38.2347 55.4885 39.3833L64.7031 64.9041H56.9708V81.1698H43.0292Z" fill="#FF9BBB"/>
</svg>
