<svg width="185" height="191" viewBox="0 0 185 191" fill="none" xmlns="http://www.w3.org/2000/svg">
<circle cx="88.2" cy="102.6" r="88.2" fill="url(#paint0_linear_4064_44587)"/>
<path fill-rule="evenodd" clip-rule="evenodd" d="M118.828 180.6C21.8677 164.28 28.4277 82.2 43.8277 43.2C32.4722 51.0891 16.8588 68.2797 12.1792 91.8C13.1146 111.939 20.3093 150.186 40.8848 168.478C45.3901 172.483 50.5369 175.532 56.4 177.224C78.6492 186.451 103.871 184.962 118.828 180.6Z" fill="url(#paint1_linear_4064_44587)"/>
<path d="M12.1792 91.8C9.02887 107.634 10.8335 126.336 22.2278 147C27.2209 156.055 33.6483 163.091 40.8848 168.478C20.3093 150.186 13.1146 111.939 12.1792 91.8Z" fill="#FFD7EB" fill-opacity="0.3"/>
<path d="M177.589 3.01348C178.384 0.622994 179.998 0.013088 181.3 0.0132511C159.625 -0.438307 146.871 10.7568 142.438 17.4135C158.389 3.97348 172.518 2.21348 177.589 3.01348Z" fill="#F393AF"/>
<path d="M142.9 31.3521C144.332 31.7026 145.966 31.7337 147.7 31.2135C148.154 30.4238 148.629 29.6666 149.121 28.9407C150.28 27.2307 151.537 25.6945 152.863 24.3162C162.111 14.7026 174.721 12.7753 180.995 13.191C179.978 13.0496 178.255 12.2033 177.488 9.61348C169.759 9.10587 152.02 12.7429 142.9 31.3521Z" fill="#D8617F"/>
<path d="M177.488 9.61348C177.247 8.79742 177.1 7.80825 177.1 6.61348C177.1 5.10786 177.284 3.92984 177.589 3.01348C172.518 2.21348 158.389 3.97348 142.438 17.4135C142.159 17.8328 141.913 18.234 141.7 18.6133C141.051 19.6941 140.017 21.4641 139.128 23.09C138.372 24.4729 137.72 25.7516 137.5 26.4135C137.073 27.6933 139.376 30.4896 142.9 31.3521C152.02 12.7429 169.759 9.10587 177.488 9.61348Z" fill="url(#paint2_linear_4064_44587)"/>
<path d="M184.9 6.61348C184.9 1.81348 182.5 0.213326 181.3 0.0132511C179.998 0.013088 178.384 0.622994 177.589 3.01348C177.284 3.92984 177.1 5.10786 177.1 6.61348C177.1 7.80825 177.247 8.79742 177.488 9.61348C178.255 12.2033 179.978 13.0496 180.995 13.191C181.098 13.1979 181.2 13.2054 181.3 13.2135C182.5 13.2135 184.9 12.6135 184.9 6.61348Z" fill="url(#paint3_linear_4064_44587)"/>
<path d="M142.9 31.3521C139.376 30.4896 137.073 27.6933 137.5 26.4135C137.72 25.7516 138.372 24.4729 139.128 23.09C136.585 22.3978 131.86 21.8535 133.3 25.2135C135.1 29.4135 142.3 34.2135 148.3 34.8135C154.3 35.4135 149.942 29.668 149.121 28.9407C148.629 29.6666 148.154 30.4238 147.7 31.2135C145.966 31.7337 144.332 31.7026 142.9 31.3521Z" fill="#DB5379"/>
<path d="M116.5 18.0098C119.691 26.4157 131.655 41.9246 155.4 44.0962C158.438 44.3741 161.669 44.4336 165.1 44.2319C168.46 36.4067 158.342 27.6942 152.863 24.3162C151.537 25.6945 150.28 27.2307 149.121 28.9407C149.942 29.668 154.3 35.4135 148.3 34.8135C142.3 34.2135 135.1 29.4135 133.3 25.2135C131.86 21.8535 136.585 22.3978 139.128 23.09C140.017 21.4641 141.051 19.6941 141.7 18.6133C140.5 18.0133 136.614 16.1526 133.9 15.6098C123.1 13.4504 117.7 15.8098 116.5 18.0098Z" fill="url(#paint4_linear_4064_44587)"/>
<path d="M154.605 62.4098C142.073 63.2863 132.537 61.202 125.4 57.7058C112.994 51.6285 107.839 41.2848 106.8 34.8098C106.875 48.611 116.193 76.6935 152.863 78.6135C168.7 79.4427 160.698 65.2135 156.335 59.4135L154.605 62.4098Z" fill="url(#paint5_linear_4064_44587)"/>
<path fill-rule="evenodd" clip-rule="evenodd" d="M106.8 34.8098L116.5 18.0098C119.691 26.4157 131.655 41.9246 155.4 44.0962C154.2 51.268 146.52 64.0305 125.4 57.7058C112.994 51.6285 107.839 41.2848 106.8 34.8098Z" fill="url(#paint6_linear_4064_44587)"/>
<path d="M154.605 62.4098L156.335 59.4135L165.1 44.2319C161.669 44.4336 158.438 44.3741 155.4 44.0962C154.2 51.268 146.52 64.0305 125.4 57.7058C132.537 61.202 142.073 63.2863 154.605 62.4098Z" fill="#E55C7C"/>
<defs>
<linearGradient id="paint0_linear_4064_44587" x1="119.4" y1="171.6" x2="47.4" y2="43.8" gradientUnits="userSpaceOnUse">
<stop stop-color="#F54674"/>
<stop offset="0.951923" stop-color="#FD91B3"/>
</linearGradient>
<linearGradient id="paint1_linear_4064_44587" x1="103.8" y1="180" x2="27" y2="94.8" gradientUnits="userSpaceOnUse">
<stop stop-color="#D43861"/>
<stop offset="1" stop-color="#FBB3CA"/>
</linearGradient>
<linearGradient id="paint2_linear_4064_44587" x1="160" y1="5" x2="140" y2="28" gradientUnits="userSpaceOnUse">
<stop stop-color="#FB86A3"/>
<stop offset="1" stop-color="#D7607E"/>
</linearGradient>
<linearGradient id="paint3_linear_4064_44587" x1="145.85" y1="1.47949e-07" x2="144.6" y2="22.2" gradientUnits="userSpaceOnUse">
<stop stop-color="#F54674"/>
<stop offset="0.519231" stop-color="#FD91B3"/>
</linearGradient>
<linearGradient id="paint4_linear_4064_44587" x1="140" y1="18" x2="160" y2="42" gradientUnits="userSpaceOnUse">
<stop stop-color="#FDBADE"/>
<stop offset="0.5" stop-color="#EF5A7B"/>
<stop offset="1" stop-color="#FDBADE"/>
</linearGradient>
<linearGradient id="paint5_linear_4064_44587" x1="130" y1="40" x2="155" y2="75" gradientUnits="userSpaceOnUse">
<stop stop-color="#FA749A"/>
<stop offset="1" stop-color="#DB5379"/>
</linearGradient>
<linearGradient id="paint6_linear_4064_44587" x1="110" y1="20" x2="150" y2="50" gradientUnits="userSpaceOnUse">
<stop stop-color="#E55C7C"/>
<stop offset="0.5" stop-color="#FFA2BF"/>
<stop offset="1" stop-color="#E55C7C"/>
</linearGradient>
</defs>
</svg>
