<svg width="185" height="191" viewBox="0 0 185 191" fill="none" xmlns="http://www.w3.org/2000/svg">
<circle cx="88.2" cy="102.6" r="88.2" fill="url(#paint0_linear_4035_29827)"/>
<path fill-rule="evenodd" clip-rule="evenodd" d="M118.828 180.6C21.8684 164.28 28.4284 82.2002 43.8284 43.2002C32.4729 51.0893 16.8596 68.2799 12.1799 91.8002C13.1154 111.94 20.31 150.186 40.8855 168.478C45.3908 172.483 50.5376 175.532 56.4008 177.224C78.65 186.451 103.872 184.962 118.828 180.6Z" fill="url(#paint1_linear_4035_29827)"/>
<path d="M12.1799 91.8002C9.0296 107.634 10.8343 126.336 22.2285 147C27.2216 156.056 33.649 163.091 40.8855 168.478C20.31 150.186 13.1154 111.94 12.1799 91.8002Z" fill="#F3FEFF" fill-opacity="0.3"/>
<path d="M177.589 3.01348C178.384 0.622994 179.999 0.013088 181.3 0.0132511C159.626 -0.438307 146.872 10.7568 142.439 17.4135C158.39 3.97348 172.519 2.21348 177.589 3.01348Z" fill="url(#paint2_linear_4035_29827)"/>
<path d="M142.9 31.3521C144.333 31.7026 145.966 31.7337 147.7 31.2135C148.155 30.4238 148.63 29.6666 149.122 28.9407C150.281 27.2307 151.538 25.6945 152.864 24.3162C162.112 14.7026 174.722 12.7753 180.995 13.191C179.979 13.0496 178.256 12.2033 177.489 9.61348C169.759 9.10587 152.02 12.7429 142.9 31.3521Z" fill="#6580E1"/>

<path d="M184.9 6.61348C184.9 1.81348 182.5 0.213326 181.3 0.0132511C179.999 0.013088 178.384 0.622994 177.589 3.01348C177.285 3.92984 177.1 5.10786 177.1 6.61348C177.1 7.80825 177.247 8.79742 177.489 9.61348C178.256 12.2033 179.979 13.0496 180.995 13.191C181.099 13.1979 181.2 13.2054 181.3 13.2135C182.5 13.2135 184.9 12.6135 184.9 6.61348Z" fill="url(#paint4_linear_4035_29827)"/>
<path d="M142.9 31.3521C139.377 30.4896 137.074 27.6933 137.5 26.4135C137.721 25.7516 138.373 24.4729 139.129 23.09C136.586 22.3978 131.86 21.8535 133.3 25.2135C135.1 29.4135 142.3 34.2135 148.3 34.8135C154.3 35.4135 149.943 29.668 149.122 28.9407C148.63 29.6666 148.155 30.4238 147.7 31.2135C145.966 31.7337 144.333 31.7026 142.9 31.3521Z" fill="#6084DE"/>
<defs>
<linearGradient id="paint0_linear_4035_29827" x1="119.4" y1="171.6" x2="47.4" y2="43.7999" gradientUnits="userSpaceOnUse">
<stop offset="0.0480769" stop-color="#90AAFF"/>
<stop offset="1" stop-color="#33E1E8"/>
</linearGradient>
<linearGradient id="paint1_linear_4035_29827" x1="103.801" y1="180" x2="27.0008" y2="94.8002" gradientUnits="userSpaceOnUse">
<stop stop-color="#6580E1"/>
<stop offset="1" stop-color="#87F5FE"/>
</linearGradient><linearGradient id="paint2_linear_4035_29827" x1="140" y1="10" x2="170" y2="40" gradientUnits="userSpaceOnUse"><stop stop-color="#BFFBFF"/><stop offset="1" stop-color="#3CE1EA"/>
</linearGradient><linearGradient id="paint4_linear_4035_29827" x1="165" y1="0" x2="185" y2="20" gradientUnits="userSpaceOnUse"><stop offset="0" stop-color="#7A97FF"/><stop offset="1" stop-color="#3CE1EA"/></linearGradient>
</defs>
</svg>
