<svg width="10" height="10" viewBox="0 0 10 10" fill="none" xmlns="http://www.w3.org/2000/svg">
<path d="M8.20916 7.41726C2.72938 6.57421 3.46705 2.14824 4.52085 0.0406328C2.6767 -0.222796 1.14531 0.831048 0.569035 2.14824C-0.90629 5.52041 0.832485 7.59289 1.88629 8.20761C5.31121 10.2055 7.50661 8.47106 8.20916 7.41726Z" fill="#494949"/>
<path d="M4.25741 2.41171C4.88969 2.41171 5.22339 1.70917 5.31121 1.3579C5.31121 1.70917 5.52197 2.41171 6.36501 2.41171C6.01375 2.49952 5.31121 2.83323 5.31121 3.46551C5.31121 2.83323 4.60868 2.49952 4.25741 2.41171Z" fill="#494949"/>
<path d="M6.36501 4.25586C6.9973 4.25586 7.8579 3.02643 7.94572 2.67516C7.94572 3.02643 8.68338 4.25586 9.52643 4.25586C9.17516 4.34368 7.94572 5.20429 7.94572 5.83657C7.94572 5.20429 6.71628 4.34368 6.36501 4.25586Z" fill="#494949"/>
</svg>
