<svg width="14" height="14" viewBox="0 0 14 14" fill="none" xmlns="http://www.w3.org/2000/svg">
<rect x="3.629" y="3.62903" width="6.7392" height="6.7392" rx="3.3696" fill="#F4F4F4"/>
<path d="M6.8033 0.540539C6.8692 0.357902 7.12749 0.357902 7.1934 0.540538L8.02049 2.83266C8.06926 2.96781 7.96913 3.1104 7.82544 3.1104H6.17125C6.02757 3.1104 5.92743 2.96781 5.9762 2.83266L6.8033 0.540539Z" fill="#F4F4F4"/>
<path d="M2.20151 2.46675C2.12062 2.29024 2.30498 2.10933 2.47994 2.19352L4.67568 3.25022C4.80515 3.31253 4.83355 3.48444 4.731 3.58507L3.55032 4.74367C3.44776 4.84431 3.27642 4.81267 3.21657 4.68205L2.20151 2.46675Z" fill="#F4F4F4"/>
<path d="M11.6062 2.19403C11.7812 2.10984 11.9655 2.29075 11.8846 2.46726L10.8695 4.68254C10.8097 4.81317 10.6384 4.8448 10.5358 4.74417L9.35514 3.58555C9.25258 3.48491 9.28098 3.313 9.41046 3.2507L11.6062 2.19403Z" fill="#F4F4F4"/>
<path d="M6.8033 13.456C6.8692 13.6387 7.12749 13.6387 7.1934 13.456L8.02049 11.1639C8.06926 11.0288 7.96913 10.8862 7.82544 10.8862H6.17125C6.02757 10.8862 5.92743 11.0288 5.9762 11.1639L6.8033 13.456Z" fill="#F4F4F4"/>
<path d="M11.6296 11.3746C11.8056 11.4564 11.9876 11.2731 11.9044 11.0977L10.8602 8.89597C10.7986 8.76614 10.6269 8.73677 10.5257 8.83875L9.36037 10.0128C9.25916 10.1148 9.28982 10.2863 9.4201 10.3469L11.6296 11.3746Z" fill="#F4F4F4"/>
<path d="M13.2486 7.24072C13.4313 7.17482 13.4313 6.91653 13.2486 6.85062L10.9565 6.02353C10.8213 5.97476 10.6788 6.07489 10.6788 6.21858V7.87277C10.6788 8.01646 10.8213 8.11659 10.9565 8.06782L13.2486 7.24072Z" fill="#F4F4F4"/>
<path d="M0.540539 7.1933C0.357902 7.1274 0.357902 6.8691 0.540538 6.8032L2.83266 5.9761C2.96781 5.92733 3.1104 6.02747 3.1104 6.17115V7.82535C3.1104 7.96903 2.96781 8.06917 2.83266 8.0204L0.540539 7.1933Z" fill="#F4F4F4"/>
<path d="M2.19629 11.0979C2.11307 11.2733 2.29501 11.4566 2.47107 11.3748L4.68065 10.3473C4.81093 10.2867 4.84161 10.1152 4.7404 10.0132L3.57521 8.83905C3.474 8.73707 3.30226 8.76643 3.24067 8.89624L2.19629 11.0979Z" fill="#F4F4F4"/>
</svg>
