<svg width="200" height="233" viewBox="0 0 200 233" fill="none" xmlns="http://www.w3.org/2000/svg">
<path d="M26.0223 87.2368L0 107.063L34.4486 91.2021L32.4659 96.6544L36.1834 94.6718L58.4882 164.065L76.5799 151.921L70.632 151.177L59.9752 142.008L69.8885 128.129L40.1487 90.2108L33.4572 88.476L26.0223 87.2368Z" fill="#9C49D2"/>
<path d="M59.7274 142.007L94.9195 93.6803L88.228 132.59L185.13 164.808L70.632 151.177L59.7274 142.007Z" fill="#CD92F8"/>
<path d="M28.7485 0L33.2094 88.4758L40.1487 90.2107L61.9579 117.968L75.0929 108.798L28.7485 0Z" fill="#CD92F8"/>
<path d="M3.22181 108.798L0 107.063L34.6964 90.9542L32.4659 96.6543L3.22181 108.798Z" fill="#CD92F8"/>
<path d="M68.8975 129.368L61.9582 117.968L94.672 95.4149L68.8975 129.368Z" fill="#7704BA"/>
<path d="M52.2928 156.877L30.7314 97.3975L36.1837 94.6714L56.2581 156.877H52.2928Z" fill="#7704BA"/>
<path d="M121.685 117.968L118.711 115.985L200 52.54L137.546 118.959L121.685 117.968Z" fill="#9C49D2"/>
<path d="M74.349 109.542L28.748 0L106.815 76.3321L107.558 106.815L94.4234 95.6629L74.349 109.542Z" fill="url(#paint0_linear_1_5254)"/>
<path d="M87.7314 133.085L94.4229 95.6628L121.684 117.968L87.7314 133.085Z" fill="url(#paint1_linear_1_5254)"/>
<path d="M121.684 117.968L87.7314 133.085L185.129 165.056L143.494 119.207L121.684 117.968Z" fill="url(#paint2_linear_1_5254)"/>
<path d="M59.4795 142.255L94.4237 95.6631L87.9801 132.838L185.13 165.056L70.3841 151.177L59.4795 142.255Z" fill="url(#paint3_linear_1_5254)"/>
<path d="M74.5969 109.294L28.748 0L33.209 88.4758L40.1483 90.2107L61.9575 117.968L74.5969 109.294Z" fill="url(#paint4_linear_1_5254)"/>
<path d="M24.1259 222.847C25.6859 222.767 26.7659 222.607 26.7659 220.487V205.567H23.9259V205.367C24.8859 205.367 25.8059 205.327 26.7659 205.247V202.087C26.7659 194.287 33.6459 193.527 35.8859 193.527C39.4859 193.527 41.9259 195.567 41.9259 197.807C41.9259 199.167 41.0059 201.007 38.6859 201.007C36.6859 201.007 35.4859 199.607 35.4859 197.847C35.4859 196.047 36.7659 195.007 37.8859 194.447C37.4459 194.127 36.8859 193.927 36.2459 193.927C33.2459 193.927 33.2459 197.367 33.2459 200.647V205.167H39.7259V205.567H33.2459V220.487C33.2459 222.607 35.1659 222.767 37.2059 222.847V223.167C35.8059 223.127 25.2059 223.127 24.1259 223.167V222.847ZM52.1284 211.087C52.1284 208.487 51.8484 205.007 49.0084 205.007C47.7284 205.007 46.5284 205.647 45.4884 206.527C46.6084 206.807 47.7684 207.847 47.7684 209.527C47.7684 211.287 46.4484 212.727 44.5684 212.727C42.6884 212.727 41.4484 211.287 41.4484 209.527C41.4484 207.047 43.9684 204.567 50.5284 204.567C58.6084 204.567 58.6084 208.327 58.6084 211.967V219.967C58.6084 221.927 59.8484 222.487 61.6484 222.527V222.847C60.0084 222.767 53.5284 223.287 52.4084 223.487H52.1284V220.047C51.1284 221.247 48.9684 223.487 46.2484 223.487C44.8484 223.487 41.3684 223.007 41.3684 219.207C41.3684 214.687 46.2484 213.887 52.1284 212.927V211.087ZM48.0084 217.767C48.0084 220.007 48.5684 220.727 49.8884 220.727C50.4884 220.727 51.0084 220.607 52.1284 219.527V213.327C48.3684 214.007 48.0084 215.927 48.0084 217.767ZM62.8341 222.847C64.3941 222.767 65.4741 222.607 65.4741 220.487V196.687C65.4741 194.727 64.2341 194.167 62.4341 194.127V193.807C64.0741 193.887 70.5541 193.367 71.6741 193.167H71.9541V220.487C71.9541 222.607 73.0341 222.767 74.5941 222.847V223.167C73.5141 223.127 63.9141 223.127 62.8341 223.167V222.847ZM76.0372 222.847C77.5972 222.767 78.6772 222.607 78.6772 220.487V196.687C78.6772 194.727 77.4372 194.167 75.6372 194.127V193.807C77.2772 193.887 83.7572 193.367 84.8772 193.167H85.1572V220.487C85.1572 222.607 86.2372 222.767 87.7972 222.847V223.167C86.7172 223.127 77.1172 223.127 76.0372 223.167V222.847ZM98.9203 223.487C94.0003 223.487 89.7203 220.167 89.7203 214.047C89.7203 208.047 93.8803 204.527 99.2403 204.527C104.04 204.527 106.4 207.567 106.4 211.047V211.447H96.3203C96.2803 211.847 96.2803 212.247 96.2803 212.647C96.2803 219.927 98.9203 221.247 101.44 221.247C103.88 221.247 105.72 220.287 106.92 218.087L107.16 218.247C105.52 221.247 103.2 223.487 98.9203 223.487ZM96.3203 211.047L99.7203 210.887C100.16 210.847 100.4 210.807 100.4 209.607C100.4 207.567 99.7603 204.927 98.6403 204.927C97.5203 204.927 96.5203 207.287 96.3203 211.047ZM115.373 223.487C111.013 223.487 111.013 219.887 111.013 217.647V205.567H108.453V205.167H111.013V203.527C113.053 202.847 115.693 201.607 117.173 200.087H117.493V205.167H122.853L122.813 205.567H117.493V216.687C117.493 220.087 117.613 221.127 118.533 221.127C119.493 221.127 120.533 219.487 121.133 217.567L121.413 217.687C120.893 219.487 120.013 223.487 115.373 223.487ZM130.646 223.487C126.286 223.487 126.286 219.887 126.286 217.647V205.567H123.726V205.167H126.286V203.527C128.326 202.847 130.966 201.607 132.446 200.087H132.766V205.167H138.126L138.086 205.567H132.766V216.687C132.766 220.087 132.886 221.127 133.806 221.127C134.766 221.127 135.806 219.487 136.406 217.567L136.686 217.687C136.166 219.487 135.286 223.487 130.646 223.487ZM148.608 223.487C143.688 223.487 139.408 220.167 139.408 214.047C139.408 208.047 143.568 204.527 148.928 204.527C153.728 204.527 156.088 207.567 156.088 211.047V211.447H146.008C145.968 211.847 145.968 212.247 145.968 212.647C145.968 219.927 148.608 221.247 151.128 221.247C153.568 221.247 155.408 220.287 156.608 218.087L156.848 218.247C155.208 221.247 152.888 223.487 148.608 223.487ZM146.008 211.047L149.408 210.887C149.848 210.847 150.088 210.807 150.088 209.607C150.088 207.567 149.448 204.927 148.328 204.927C147.208 204.927 146.208 207.287 146.008 211.047ZM158.22 222.847C159.78 222.767 161.26 222.607 161.26 220.487V208.047C161.26 206.087 160.02 205.527 158.22 205.487V205.167C159.86 205.247 166.34 204.727 167.46 204.527H167.74V207.727H167.82C169.3 206.407 171.3 204.487 173.46 204.487C175.3 204.487 176.54 205.807 176.54 207.487C176.54 209.167 175.26 210.887 173.34 210.887C172.06 210.887 170.3 210.167 169.74 207.087C169.14 207.327 168.5 207.727 167.74 208.287V220.487C167.74 222.607 169.22 222.767 171.58 222.847V223.167C169.7 223.127 159.3 223.127 158.22 223.167V222.847Z" fill="url(#paint5_linear_1_5254)"/>
<defs>
<linearGradient id="paint0_linear_1_5254" x1="117.224" y1="35.9356" x2="48.3267" y2="65.6753" gradientUnits="userSpaceOnUse">
<stop stop-color="#D8B4F6"/>
<stop offset="1" stop-color="#B640FF"/>
</linearGradient>
<linearGradient id="paint1_linear_1_5254" x1="147.211" y1="111.276" x2="82.527" y2="101.363" gradientUnits="userSpaceOnUse">
<stop stop-color="#D8B4F6"/>
<stop offset="1" stop-color="#B640FF"/>
</linearGradient>
<linearGradient id="paint2_linear_1_5254" x1="171.746" y1="108.798" x2="87.5447" y2="132.607" gradientUnits="userSpaceOnUse">
<stop stop-color="#D8B4F6"/>
<stop offset="1" stop-color="#B640FF"/>
</linearGradient>
<linearGradient id="paint3_linear_1_5254" x1="116.481" y1="108.302" x2="51.0532" y2="146.716" gradientUnits="userSpaceOnUse">
<stop stop-color="#D8B4F6"/>
<stop offset="1" stop-color="#B640FF"/>
</linearGradient>
<linearGradient id="paint4_linear_1_5254" x1="51.6725" y1="0.247832" x2="61.214" y2="147.212" gradientUnits="userSpaceOnUse">
<stop stop-color="#D8B4F6"/>
<stop offset="1" stop-color="#B640FF"/>
</linearGradient>
<linearGradient id="paint5_linear_1_5254" x1="23" y1="208.667" x2="177" y2="208.667" gradientUnits="userSpaceOnUse">
<stop stop-color="#EF9DFF"/>
<stop offset="1" stop-color="#B640FF"/>
</linearGradient>
</defs>
</svg>
