<svg width="200" height="233" viewBox="0 0 200 233" fill="none" xmlns="http://www.w3.org/2000/svg">
<path d="M26.0223 87.2074L0 107.027L34.4486 91.1714L32.4659 96.6218L36.1834 94.6398L58.4882 164.009L76.5799 151.87L70.632 151.126L59.9752 141.96L69.8885 128.086L40.1487 90.1804L33.4572 88.4461L26.0223 87.2074Z" fill="#FF7A9D"/>
<path d="M59.7274 141.959L94.9195 93.6487L88.228 132.545L185.13 164.752L70.632 151.126L59.7274 141.959Z" fill="#FFA7BE"/>
<path d="M28.7485 0L33.2094 88.446L40.1487 90.1802L61.9579 117.928L75.0929 108.761L28.7485 0Z" fill="#FFA7BE"/>
<path d="M3.22181 108.761L0 107.027L34.6964 90.9234L32.4659 96.6216L3.22181 108.761Z" fill="#FFA7BE"/>
<path d="M68.897 129.324L61.9577 117.928L94.6715 95.3826L68.897 129.324Z" fill="#EC436F"/>
<path d="M52.2923 156.824L30.731 97.3646L36.1832 94.6394L56.2576 156.824H52.2923Z" fill="#EC436F"/>
<path d="M121.685 117.928L118.711 115.946L200 52.5223L137.547 118.919L121.685 117.928Z" fill="#EC436F"/>
<path d="M74.3495 109.505L28.7485 0L106.815 76.3063L107.559 106.779L94.4239 95.6306L74.3495 109.505Z" fill="url(#paint0_linear_1_3856)"/>
<path d="M87.7324 133.041L94.4239 95.6306L121.685 117.928L87.7324 133.041Z" fill="url(#paint1_linear_1_3856)"/>
<path d="M121.685 117.928L87.7324 133.04L185.13 165L143.495 119.167L121.685 117.928Z" fill="url(#paint2_linear_1_3856)"/>
<path d="M59.4795 142.207L94.4237 95.6307L87.9801 132.793L185.13 165L70.3841 151.126L59.4795 142.207Z" fill="url(#paint3_linear_1_3856)"/>
<path d="M74.5974 109.257L28.7485 0L33.2095 88.446L40.1488 90.1802L61.958 117.928L74.5974 109.257Z" fill="url(#paint4_linear_1_3856)"/>
<path d="M24.1259 222.736C25.6859 222.656 26.7659 222.496 26.7659 220.376V205.456H23.9259V205.256C24.8859 205.256 25.8059 205.216 26.7659 205.136V201.976C26.7659 194.176 33.6459 193.416 35.8859 193.416C39.4859 193.416 41.9259 195.456 41.9259 197.696C41.9259 199.056 41.0059 200.896 38.6859 200.896C36.6859 200.896 35.4859 199.496 35.4859 197.736C35.4859 195.936 36.7659 194.896 37.8859 194.336C37.4459 194.016 36.8859 193.816 36.2459 193.816C33.2459 193.816 33.2459 197.256 33.2459 200.536V205.056H39.7259V205.456H33.2459V220.376C33.2459 222.496 35.1659 222.656 37.2059 222.736V223.056C35.8059 223.016 25.2059 223.016 24.1259 223.056V222.736ZM52.1284 210.976C52.1284 208.376 51.8484 204.896 49.0084 204.896C47.7284 204.896 46.5284 205.536 45.4884 206.416C46.6084 206.696 47.7684 207.736 47.7684 209.416C47.7684 211.176 46.4484 212.616 44.5684 212.616C42.6884 212.616 41.4484 211.176 41.4484 209.416C41.4484 206.936 43.9684 204.456 50.5284 204.456C58.6084 204.456 58.6084 208.216 58.6084 211.856V219.856C58.6084 221.816 59.8484 222.376 61.6484 222.416V222.736C60.0084 222.656 53.5284 223.176 52.4084 223.376H52.1284V219.936C51.1284 221.136 48.9684 223.376 46.2484 223.376C44.8484 223.376 41.3684 222.896 41.3684 219.096C41.3684 214.576 46.2484 213.776 52.1284 212.816V210.976ZM48.0084 217.656C48.0084 219.896 48.5684 220.616 49.8884 220.616C50.4884 220.616 51.0084 220.496 52.1284 219.416V213.216C48.3684 213.896 48.0084 215.816 48.0084 217.656ZM62.8341 222.736C64.3941 222.656 65.4741 222.496 65.4741 220.376V196.576C65.4741 194.616 64.2341 194.056 62.4341 194.016V193.696C64.0741 193.776 70.5541 193.256 71.6741 193.056H71.9541V220.376C71.9541 222.496 73.0341 222.656 74.5941 222.736V223.056C73.5141 223.016 63.9141 223.016 62.8341 223.056V222.736ZM76.0372 222.736C77.5972 222.656 78.6772 222.496 78.6772 220.376V196.576C78.6772 194.616 77.4372 194.056 75.6372 194.016V193.696C77.2772 193.776 83.7572 193.256 84.8772 193.056H85.1572V220.376C85.1572 222.496 86.2372 222.656 87.7972 222.736V223.056C86.7172 223.016 77.1172 223.016 76.0372 223.056V222.736ZM98.9203 223.376C94.0003 223.376 89.7203 220.056 89.7203 213.936C89.7203 207.936 93.8803 204.416 99.2403 204.416C104.04 204.416 106.4 207.456 106.4 210.936V211.336H96.3203C96.2803 211.736 96.2803 212.136 96.2803 212.536C96.2803 219.816 98.9203 221.136 101.44 221.136C103.88 221.136 105.72 220.176 106.92 217.976L107.16 218.136C105.52 221.136 103.2 223.376 98.9203 223.376ZM96.3203 210.936L99.7203 210.776C100.16 210.736 100.4 210.696 100.4 209.496C100.4 207.456 99.7603 204.816 98.6403 204.816C97.5203 204.816 96.5203 207.176 96.3203 210.936ZM115.373 223.376C111.013 223.376 111.013 219.776 111.013 217.536V205.456H108.453V205.056H111.013V203.416C113.053 202.736 115.693 201.496 117.173 199.976H117.493V205.056H122.853L122.813 205.456H117.493V216.576C117.493 219.976 117.613 221.016 118.533 221.016C119.493 221.016 120.533 219.376 121.133 217.456L121.413 217.576C120.893 219.376 120.013 223.376 115.373 223.376ZM130.646 223.376C126.286 223.376 126.286 219.776 126.286 217.536V205.456H123.726V205.056H126.286V203.416C128.326 202.736 130.966 201.496 132.446 199.976H132.766V205.056H138.126L138.086 205.456H132.766V216.576C132.766 219.976 132.886 221.016 133.806 221.016C134.766 221.016 135.806 219.376 136.406 217.456L136.686 217.576C136.166 219.376 135.286 223.376 130.646 223.376ZM148.608 223.376C143.688 223.376 139.408 220.056 139.408 213.936C139.408 207.936 143.568 204.416 148.928 204.416C153.728 204.416 156.088 207.456 156.088 210.936V211.336H146.008C145.968 211.736 145.968 212.136 145.968 212.536C145.968 219.816 148.608 221.136 151.128 221.136C153.568 221.136 155.408 220.176 156.608 217.976L156.848 218.136C155.208 221.136 152.888 223.376 148.608 223.376ZM146.008 210.936L149.408 210.776C149.848 210.736 150.088 210.696 150.088 209.496C150.088 207.456 149.448 204.816 148.328 204.816C147.208 204.816 146.208 207.176 146.008 210.936ZM158.22 222.736C159.78 222.656 161.26 222.496 161.26 220.376V207.936C161.26 205.976 160.02 205.416 158.22 205.376V205.056C159.86 205.136 166.34 204.616 167.46 204.416H167.74V207.616H167.82C169.3 206.296 171.3 204.376 173.46 204.376C175.3 204.376 176.54 205.696 176.54 207.376C176.54 209.056 175.26 210.776 173.34 210.776C172.06 210.776 170.3 210.056 169.74 206.976C169.14 207.216 168.5 207.616 167.74 208.176V220.376C167.74 222.496 169.22 222.656 171.58 222.736V223.056C169.7 223.016 159.3 223.016 158.22 223.056V222.736Z" fill="url(#paint5_linear_1_3856)"/>
<defs>
<linearGradient id="paint0_linear_1_3856" x1="117.224" y1="35.9234" x2="48.3345" y2="65.6701" gradientUnits="userSpaceOnUse">
<stop stop-color="#FF9BBB"/>
<stop offset="1" stop-color="#FF507F"/>
</linearGradient>
<linearGradient id="paint1_linear_1_3856" x1="147.212" y1="111.239" x2="82.529" y2="101.322" gradientUnits="userSpaceOnUse">
<stop stop-color="#FF9BBB"/>
<stop offset="1" stop-color="#FF507F"/>
</linearGradient>
<linearGradient id="paint2_linear_1_3856" x1="171.747" y1="108.761" x2="87.5498" y2="132.577" gradientUnits="userSpaceOnUse">
<stop stop-color="#FF9BBB"/>
<stop offset="1" stop-color="#FF507F"/>
</linearGradient>
<linearGradient id="paint3_linear_1_3856" x1="116.481" y1="108.266" x2="51.0645" y2="146.686" gradientUnits="userSpaceOnUse">
<stop stop-color="#FF9BBB"/>
<stop offset="1" stop-color="#FF507F"/>
</linearGradient>
<linearGradient id="paint4_linear_1_3856" x1="51.6729" y1="0.247748" x2="61.208" y2="147.163" gradientUnits="userSpaceOnUse">
<stop stop-color="#FF9BBB"/>
<stop offset="1" stop-color="#FF507F"/>
</linearGradient>
<linearGradient id="paint5_linear_1_3856" x1="177" y1="209" x2="23" y2="209" gradientUnits="userSpaceOnUse">
<stop stop-color="#FF9BBB"/>
<stop offset="1" stop-color="#FF507F"/>
</linearGradient>
</defs>
</svg>
