<svg width="390" height="449" viewBox="0 0 390 449" fill="none" xmlns="http://www.w3.org/2000/svg">
<g filter="url(#filter0_f_4312_45841)">
<rect x="109" y="180" width="174" height="89" fill="#EB96FE"/>
</g>
<rect width="93.2476" height="93.2476" transform="matrix(0.86651 0.49916 -0.86651 0.49916 144.902 156.002)" fill="url(#paint0_linear_4312_45841)"/>
<rect width="93.2476" height="60.5091" transform="matrix(0.86651 0.49916 0 1 64.1016 202.547)" fill="#CB76FF"/>
<rect width="93.2476" height="60.5091" transform="matrix(0.86651 -0.49916 0 1 144.902 249.093)" fill="#8900DE"/>
<circle cx="16.0269" cy="16.0269" r="16.0269" transform="matrix(0.86651 0.49916 -0.86651 0.49916 144.793 140.002)" fill="url(#paint1_linear_4312_45841)"/>
<path d="M125.152 156.002C125.152 159.126 127.351 161.955 130.905 164.002V184.802C127.351 182.755 125.152 179.926 125.152 176.802V156.002Z" fill="#CB76FF"/>
<path d="M130.906 164.002C138.576 168.42 151.011 168.42 158.681 164.002V184.802C151.011 189.22 138.576 189.22 130.906 184.802V164.002Z" fill="#8900DE"/>
<path d="M164.432 156.002C164.432 159.126 162.234 161.955 158.68 164.002V184.802C162.234 182.755 164.432 179.926 164.432 176.802V156.002Z" fill="#8900DE"/>
<circle cx="16.0269" cy="16.0269" r="16.0269" transform="matrix(0.86651 0.49916 -0.86651 0.49916 186.488 164.002)" fill="url(#paint2_linear_4312_45841)"/>
<path d="M166.848 180.002C166.848 183.126 169.046 185.955 172.6 188.002V208.802C169.046 206.755 166.848 203.926 166.848 200.802V180.002Z" fill="#CB76FF"/>
<path d="M172.602 188.002C180.271 192.42 192.707 192.42 200.377 188.002V208.802C192.707 213.22 180.271 213.22 172.602 208.802V188.002Z" fill="#8900DE"/>
<path d="M206.127 180.002C206.127 183.126 203.929 185.955 200.375 188.002V208.802C203.929 206.755 206.127 203.926 206.127 200.802V180.002Z" fill="#8900DE"/>
<circle cx="16.0269" cy="16.0269" r="16.0269" transform="matrix(0.86651 0.49916 -0.86651 0.49916 106.309 164.002)" fill="url(#paint3_linear_4312_45841)"/>
<path d="M86.668 180.002C86.668 183.126 88.8662 185.955 92.4204 188.002V208.802C88.8662 206.755 86.668 203.926 86.668 200.802V180.002Z" fill="#CB76FF"/>
<path d="M92.4219 188.002C100.092 192.42 112.527 192.42 120.197 188.002V208.802C112.527 213.22 100.092 213.22 92.4219 208.802V188.002Z" fill="#8900DE"/>
<path d="M125.948 180.002C125.948 183.126 123.749 185.955 120.195 188.002V208.802C123.749 206.755 125.948 203.926 125.948 200.802V180.002Z" fill="#8900DE"/>
<circle cx="16.0269" cy="16.0269" r="16.0269" transform="matrix(0.86651 0.49916 -0.86651 0.49916 144.793 188.002)" fill="url(#paint4_linear_4312_45841)"/>
<path d="M125.152 204.002C125.152 207.126 127.351 209.955 130.905 212.002V232.802C127.351 230.755 125.152 227.926 125.152 224.802V204.002Z" fill="#CB76FF"/>
<path d="M130.906 212.002C138.576 216.42 151.011 216.42 158.681 212.002V232.802C151.011 237.22 138.576 237.22 130.906 232.802V212.002Z" fill="#8900DE"/>
<path d="M164.432 204.002C164.432 207.126 162.234 209.955 158.68 212.002V232.802C162.234 230.755 164.432 227.926 164.432 224.802V204.002Z" fill="#8900DE"/>
<path d="M230.059 241.703L325.703 171.429L212.126 232.426L165.703 213.11L325.703 171.429L301.283 268.517L230.059 241.703Z" fill="url(#paint5_linear_4312_45841)"/>
<path d="M212.125 278.302V232.426L325.575 171.302L230.058 241.703L212.125 278.302Z" fill="#AD00D9"/>
<path d="M245.448 247.549L212.125 278.175L230.058 241.703L245.448 247.549Z" fill="#B640FF"/>
<defs>
<filter id="filter0_f_4312_45841" x="-71" y="0" width="534" height="449" filterUnits="userSpaceOnUse" color-interpolation-filters="sRGB">
<feFlood flood-opacity="0" result="BackgroundImageFix"/>
<feBlend mode="normal" in="SourceGraphic" in2="BackgroundImageFix" result="shape"/>
<feGaussianBlur stdDeviation="90" result="effect1_foregroundBlur_4312_45841"/>
</filter>
<linearGradient id="paint0_linear_4312_45841" x1="46.6238" y1="0" x2="46.6238" y2="93.2476" gradientUnits="userSpaceOnUse">
<stop stop-color="#EF9DFF"/>
<stop offset="1" stop-color="#B640FF"/>
</linearGradient>
<linearGradient id="paint1_linear_4312_45841" x1="16.0269" y1="0" x2="16.0269" y2="32.0539" gradientUnits="userSpaceOnUse">
<stop stop-color="#EF9DFF"/>
<stop offset="1" stop-color="#B640FF"/>
</linearGradient>
<linearGradient id="paint2_linear_4312_45841" x1="16.0269" y1="0" x2="16.0269" y2="32.0539" gradientUnits="userSpaceOnUse">
<stop stop-color="#EF9DFF"/>
<stop offset="1" stop-color="#B640FF"/>
</linearGradient>
<linearGradient id="paint3_linear_4312_45841" x1="16.0269" y1="0" x2="16.0269" y2="32.0539" gradientUnits="userSpaceOnUse">
<stop stop-color="#EF9DFF"/>
<stop offset="1" stop-color="#B640FF"/>
</linearGradient>
<linearGradient id="paint4_linear_4312_45841" x1="16.0269" y1="0" x2="16.0269" y2="32.0539" gradientUnits="userSpaceOnUse">
<stop stop-color="#EF9DFF"/>
<stop offset="1" stop-color="#B640FF"/>
</linearGradient>
<linearGradient id="paint5_linear_4312_45841" x1="245.703" y1="171.429" x2="245.703" y2="268.517" gradientUnits="userSpaceOnUse">
<stop stop-color="#EF9DFF"/>
<stop offset="1" stop-color="#B640FF"/>
</linearGradient>
</defs>
</svg>
